<svg width="200" height="240" viewBox="0 0 200 240" fill="none" xmlns="http://www.w3.org/2000/svg">
  <defs>
    <linearGradient id="bg2" x1="0%" y1="0%" x2="100%" y2="100%">
      <stop offset="0%" style="stop-color:#f1f5f9"/>
      <stop offset="100%" style="stop-color:#cbd5e1"/>
    </linearGradient>
  </defs>
  <rect width="200" height="240" fill="url(#bg2)"/>
  
  <!-- Hair -->
  <ellipse cx="100" cy="55" rx="40" ry="30" fill="#2D1810"/>
  
  <!-- Face -->
  <ellipse cx="100" cy="80" rx="35" ry="40" fill="#FDBCB4"/>
  
  <!-- Eyes -->
  <circle cx="90" cy="75" r="3" fill="#059669"/>
  <circle cx="110" cy="75" r="3" fill="#059669"/>
  
  <!-- Nose -->
  <ellipse cx="100" cy="85" rx="2" ry="3" fill="#F4A460"/>
  
  <!-- Mouth -->
  <path d="M95 90 Q100 93 105 90" stroke="#dc2626" stroke-width="2" fill="none"/>
  
  <!-- Beard -->
  <ellipse cx="100" cy="105" rx="20" ry="12" fill="#2D1810"/>
  
  <!-- Body/Suit -->
  <rect x="70" y="120" width="60" height="120" rx="10" fill="#1f2937"/>
  
  <!-- Tie -->
  <rect x="95" y="125" width="10" height="40" fill="#dc2626"/>
  <polygon points="95,125 105,125 102,120 98,120" fill="#dc2626"/>
  
  <!-- Suit jacket lapels -->
  <polygon points="70,125 85,140 85,125" fill="#111827"/>
  <polygon points="130,125 115,140 115,125" fill="#111827"/>
  
  <!-- Arms -->
  <rect x="50" y="130" width="20" height="80" rx="10" fill="#1f2937"/>
  <rect x="130" y="130" width="20" height="80" rx="10" fill="#1f2937"/>
  
  <!-- Hands -->
  <circle cx="60" cy="210" r="8" fill="#FDBCB4"/>
  <circle cx="140" cy="210" r="8" fill="#FDBCB4"/>
  
  <!-- Text -->
  <text x="100" y="230" text-anchor="middle" fill="#374151" font-family="Arial" font-size="12" font-weight="bold">Josh Business</text>
</svg>