<svg width="200" height="240" viewBox="0 0 200 240" fill="none" xmlns="http://www.w3.org/2000/svg">
  <defs>
    <linearGradient id="bg5" x1="0%" y1="0%" x2="100%" y2="100%">
      <stop offset="0%" style="stop-color:#ecfdf5"/>
      <stop offset="100%" style="stop-color:#d1fae5"/>
    </linearGradient>
  </defs>
  <rect width="200" height="240" fill="url(#bg5)"/>
  
  <!-- Hair (sleek tech style) -->
  <ellipse cx="100" cy="60" rx="40" ry="35" fill="#1f2937"/>
  <path d="M75 45 Q100 40 125 45" stroke="#1f2937" stroke-width="3" fill="none"/>
  
  <!-- Face -->
  <ellipse cx="100" cy="80" rx="35" ry="40" fill="#FDBCB4"/>
  
  <!-- Eyes -->
  <circle cx="90" cy="75" r="3" fill="#065f46"/>
  <circle cx="110" cy="75" r="3" fill="#065f46"/>
  
  <!-- Nose -->
  <ellipse cx="100" cy="85" rx="2" ry="3" fill="#F4A460"/>
  
  <!-- Mouth -->
  <path d="M95 90 Q100 93 105 90" stroke="#dc2626" stroke-width="2" fill="none"/>
  
  <!-- Body/Tech outfit -->
  <rect x="70" y="120" width="60" height="120" rx="10" fill="#059669"/>
  
  <!-- Tech elements -->
  <rect x="75" y="130" width="50" height="2" fill="#10b981"/>
  <rect x="75" y="135" width="30" height="2" fill="#10b981"/>
  <rect x="95" y="140" width="20" height="2" fill="#10b981"/>
  
  <!-- Circuit pattern -->
  <circle cx="85" cy="150" r="2" fill="#34d399"/>
  <line x1="85" y1="148" x2="95" y2="148" stroke="#34d399" stroke-width="1"/>
  <circle cx="95" cy="148" r="1" fill="#34d399"/>
  <line x1="95" y1="148" x2="105" y2="158" stroke="#34d399" stroke-width="1"/>
  <circle cx="105" cy="158" r="2" fill="#34d399"/>
  
  <!-- Arms -->
  <rect x="50" y="130" width="20" height="80" rx="10" fill="#059669"/>
  <rect x="130" y="130" width="20" height="80" rx="10" fill="#059669"/>
  
  <!-- Hands -->
  <circle cx="60" cy="210" r="8" fill="#FDBCB4"/>
  <circle cx="140" cy="210" r="8" fill="#FDBCB4"/>
  
  <!-- Text -->
  <text x="100" y="230" text-anchor="middle" fill="#374151" font-family="Arial" font-size="12" font-weight="bold">Monica Tech</text>
</svg>