<svg width="200" height="240" viewBox="0 0 200 240" fill="none" xmlns="http://www.w3.org/2000/svg">
  <defs>
    <linearGradient id="bg4" x1="0%" y1="0%" x2="100%" y2="100%">
      <stop offset="0%" style="stop-color:#ddd6fe"/>
      <stop offset="100%" style="stop-color:#c4b5fd"/>
    </linearGradient>
  </defs>
  <rect width="200" height="240" fill="url(#bg4)"/>
  
  <!-- Hair (creative style) -->
  <ellipse cx="100" cy="55" rx="45" ry="35" fill="#FF6B35"/>
  <!-- Spiky hair effect -->
  <polygon points="80,35 85,20 90,35" fill="#FF6B35"/>
  <polygon points="95,30 100,15 105,30" fill="#FF6B35"/>
  <polygon points="110,35 115,20 120,35" fill="#FF6B35"/>
  
  <!-- Face -->
  <ellipse cx="100" cy="80" rx="35" ry="40" fill="#FDBCB4"/>
  
  <!-- Glasses -->
  <circle cx="90" cy="75" r="12" stroke="#1f2937" stroke-width="2" fill="rgba(255,255,255,0.3)"/>
  <circle cx="110" cy="75" r="12" stroke="#1f2937" stroke-width="2" fill="rgba(255,255,255,0.3)"/>
  <line x1="102" y1="75" x2="98" y2="75" stroke="#1f2937" stroke-width="2"/>
  
  <!-- Eyes behind glasses -->
  <circle cx="90" cy="75" r="3" fill="#0891b2"/>
  <circle cx="110" cy="75" r="3" fill="#0891b2"/>
  
  <!-- Nose -->
  <ellipse cx="100" cy="85" rx="2" ry="3" fill="#F4A460"/>
  
  <!-- Mouth -->
  <path d="M95 90 Q100 95 105 90" stroke="#dc2626" stroke-width="2" fill="none"/>
  
  <!-- Body/Creative outfit -->
  <rect x="70" y="120" width="60" height="120" rx="10" fill="#7c3aed"/>
  
  <!-- Creative design elements -->
  <rect x="75" y="130" width="20" height="3" fill="#fbbf24"/>
  <rect x="105" y="130" width="20" height="3" fill="#f59e0b"/>
  <circle cx="85" cy="150" r="5" fill="#10b981"/>
  <rect x="95" y="145" width="10" height="10" fill="#ef4444"/>
  <polygon points="110,145 115,155 120,145" fill="#8b5cf6"/>
  
  <!-- Arms -->
  <rect x="50" y="130" width="20" height="80" rx="10" fill="#7c3aed"/>
  <rect x="130" y="130" width="20" height="80" rx="10" fill="#7c3aed"/>
  
  <!-- Hands -->
  <circle cx="60" cy="210" r="8" fill="#FDBCB4"/>
  <circle cx="140" cy="210" r="8" fill="#FDBCB4"/>
  
  <!-- Text -->
  <text x="100" y="230" text-anchor="middle" fill="#374151" font-family="Arial" font-size="12" font-weight="bold">Tyler Creative</text>
</svg>